<svg width="20" height="20" viewBox="0 0 20 20" fill="none" xmlns="http://www.w3.org/2000/svg">
<path d="M15.9934 15.2306C14.1406 16.017 11.9297 16.4486 10 16.4486C8.07031 16.4486 5.86445 16.0072 4.00625 15.2306C2.14805 14.4541 1.875 13.7967 1.875 13.7967V15.2888C1.875 16.5056 2.57812 16.9935 4.50469 17.8025C5.98164 18.4228 7.93672 18.7513 10 18.7513C12.0633 18.7513 14.0184 18.4228 15.4953 17.8025C17.4219 16.9935 18.125 16.5056 18.125 15.2888V13.7967C18.125 13.7967 17.8461 14.4447 15.9934 15.2306Z" fill="#012076"/>
<path d="M2.48789 6.76605C2.92656 7.15042 3.57461 7.52737 4.36289 7.85667C6.02227 8.55042 8.13047 8.96487 10.002 8.96487C11.8734 8.96487 13.9816 8.55042 15.641 7.85667C16.4273 7.52737 17.0754 7.15042 17.5141 6.76605C17.7508 6.55862 17.9379 6.37073 18.0402 6.26409C18.096 6.20584 18.127 6.12831 18.127 6.04769V5.02972V5.02581C18.0941 3.9012 17.1617 2.90042 15.5016 2.20784C14.0168 1.58988 12.0641 1.24964 10 1.24964C7.93594 1.24964 5.9832 1.58988 4.50234 2.20784C2.8457 2.89886 1.91406 3.8973 1.87695 5.01917V6.04769C1.87676 6.12825 1.90769 6.20578 1.96328 6.26409C2.06406 6.37073 2.25078 6.55862 2.48789 6.76605Z" fill="#012076"/>
<path d="M15.9934 8.66887C14.2578 9.41457 11.9297 9.88684 10 9.88684C8.07031 9.88684 5.74726 9.40754 4.00664 8.66887C2.26602 7.9302 1.875 7.23489 1.875 7.23489V9.08489C1.87812 9.37864 2.08984 9.7177 2.48789 10.0665C2.92695 10.4509 3.57461 10.8282 4.36289 11.1572C6.02031 11.8513 8.12851 12.2661 10 12.2661C11.8715 12.2661 13.9797 11.8521 15.6391 11.1579C16.4254 10.829 17.0734 10.4517 17.5121 10.0673C17.9125 9.71575 18.1246 9.37551 18.125 9.0802V7.23489C18.125 7.23489 17.7293 7.92317 15.9934 8.66887Z" fill="#012076"/>
<path d="M15.9934 11.9679C14.1406 12.7344 11.9297 13.1859 10 13.1859C8.07031 13.1859 5.7082 12.6859 4.00664 11.9679C2.30508 11.25 1.875 10.534 1.875 10.534V12.3406C1.875 12.6355 2.0875 12.9765 2.48789 13.3273C2.92656 13.7117 3.57422 14.089 4.36289 14.4179C6.02226 15.1121 8.13008 15.5262 10.002 15.5262C11.8738 15.5262 13.9816 15.1121 15.641 14.4179C16.4273 14.0887 17.0754 13.7117 17.5141 13.3273C17.9121 12.9785 18.1238 12.6394 18.1269 12.3457V10.534C18.1269 10.534 17.8465 11.2015 15.9934 11.9679Z" fill="#012076"/>
</svg>
