<svg width="4" height="14" viewBox="0 0 4 14" fill="none" xmlns="http://www.w3.org/2000/svg">
<path d="M2.29993 8C2.81803 8 3.23804 7.55228 3.23804 7C3.23804 6.44772 2.81803 6 2.29993 6C1.78182 6 1.36182 6.44772 1.36182 7C1.36182 7.55228 1.78182 8 2.29993 8Z" stroke="black" stroke-miterlimit="10"/>
<path d="M2.29993 13C2.81803 13 3.23804 12.5523 3.23804 12C3.23804 11.4477 2.81803 11 2.29993 11C1.78182 11 1.36182 11.4477 1.36182 12C1.36182 12.5523 1.78182 13 2.29993 13Z" stroke="black" stroke-miterlimit="10"/>
<path d="M2.29993 3C2.81803 3 3.23804 2.55228 3.23804 2C3.23804 1.44772 2.81803 1 2.29993 1C1.78182 1 1.36182 1.44772 1.36182 2C1.36182 2.55228 1.78182 3 2.29993 3Z" stroke="black" stroke-miterlimit="10"/>
</svg>
